<svg width="348" height="113" viewBox="0 0 348 113" fill="none" xmlns="http://www.w3.org/2000/svg">
<path fill-rule="evenodd" clip-rule="evenodd" d="M147.826 56.2332C146.609 55.9223 146 54.9275 146 53.2487C146.061 51.1347 147.02 49.0518 148.876 47L149.835 47.6995C148.526 49.0984 147.857 50.2176 147.826 51.057C147.857 51.3989 148.207 51.6632 148.876 51.8497C148.968 51.8808 149.089 51.9119 149.242 51.943C150.216 52.3161 150.703 53 150.703 53.9948C150.703 54.3057 150.642 54.6166 150.52 54.9275C150.155 55.8601 149.485 56.3264 148.511 56.3264C148.298 56.3264 148.07 56.2953 147.826 56.2332ZM153.716 56.2332C152.498 55.9223 151.89 54.9275 151.89 53.2487C151.951 51.1347 152.909 49.0518 154.766 47L155.725 47.6995C154.416 49.0984 153.746 50.2176 153.716 51.057C153.746 51.3989 154.096 51.6632 154.766 51.8497C154.857 51.8808 154.979 51.9119 155.131 51.943C156.105 52.3161 156.592 53 156.592 53.9948C156.592 54.3057 156.531 54.6166 156.41 54.9275C156.044 55.8601 155.375 56.3264 154.401 56.3264C154.188 56.3264 153.959 56.2953 153.716 56.2332ZM168.174 51.7668C169.391 52.0777 170 53.0725 170 54.7513C169.939 56.8653 168.98 58.9482 167.124 61L166.165 60.3005C167.474 58.9015 168.143 57.7824 168.174 56.943C168.143 56.601 167.793 56.3368 167.124 56.1503C167.032 56.1192 166.911 56.0881 166.758 56.057C165.784 55.6839 165.297 55 165.297 54.0052C165.297 53.6943 165.358 53.3834 165.48 53.0725C165.845 52.1399 166.515 51.6736 167.489 51.6736C167.702 51.6736 167.93 51.7047 168.174 51.7668ZM162.284 51.7668C163.502 52.0777 164.11 53.0725 164.11 54.7513C164.058 56.5612 163.348 58.3483 161.979 60.1127C161.75 60.4091 161.501 60.7049 161.234 61L160.275 60.3005C160.562 59.9945 160.817 59.7018 161.042 59.4225C161.846 58.4252 162.26 57.5987 162.284 56.943C162.254 56.601 161.904 56.3368 161.234 56.1503C161.143 56.1192 161.021 56.0881 160.869 56.057C159.895 55.6839 159.408 55 159.408 54.0052C159.408 53.6943 159.469 53.3834 159.59 53.0725C159.956 52.1399 160.625 51.6736 161.599 51.6736C161.812 51.6736 162.041 51.7047 162.284 51.7668Z" fill="black"/>
<path d="M33.5625 23.8125C26 23.8125 19.5312 26.3125 14.1562 31.3125C8.34375 36.75 5.4375 43.9062 5.4375 52.7812C5.4375 62.5312 8.84375 70.1875 15.6562 75.75C20.7812 79.875 26.6562 81.9375 33.2812 81.9375C35.7188 81.9375 38.25 81.5938 40.875 80.9062C43.75 85.7812 45.8438 88.9062 47.1562 90.2812C49.5938 92.7812 52.1875 94.0625 54.9375 94.125C60 94 64.125 90.375 67.3125 83.25L65.3438 82.125C62.0312 86 58.9375 87.9688 56.0625 88.0312C53.5 88.0312 50.625 86.0625 47.4375 82.125C47 81.5625 46.2812 80.625 45.2812 79.3125C52.2812 76.0625 57.0312 70.7188 59.5312 63.2812C60.6562 59.9688 61.2188 56.4062 61.2188 52.5938C61.2188 42.5938 57.7188 34.9062 50.7188 29.5312C45.7188 25.7188 40 23.8125 33.5625 23.8125ZM32.1562 69.8438C28.5938 69.9062 25.4375 71.9062 22.6875 75.8438C17.4375 71.5938 14.8125 63.9062 14.8125 52.7812C14.8125 37.7188 19.5 29.0938 28.875 26.9062C30.375 26.5937 31.9062 26.4375 33.4688 26.4375C43.5312 26.4375 49.4688 32.3438 51.2812 44.1562C51.6562 46.7188 51.8438 49.4688 51.8438 52.4062C51.7812 64.4062 48.8438 72.4375 43.0312 76.5C39.3438 72.125 35.7188 69.9062 32.1562 69.8438ZM33.2812 79.3125C30.0938 79.3125 27.2812 78.6562 24.8438 77.3438C27.2188 74.5938 29.5625 73.1875 31.875 73.125C34.375 73.1875 36.8125 74.9375 39.1875 78.375C37.4375 79 35.4688 79.3125 33.2812 79.3125ZM67.3125 27.1875H74.8125V59.9062C74.9375 74.5312 82.2188 81.875 96.6562 81.9375C107.656 81.9375 114.312 77.4375 116.625 68.4375C117.312 65.6875 117.656 62.5625 117.656 59.0625V27.1875H125.156V24.75H106.875V27.1875H114.375V59.625C114.375 71.75 109.875 78.2812 100.875 79.2188C100.125 79.2812 99.375 79.3125 98.625 79.3125C91 79.3125 86.1875 76.0938 84.1875 69.6562C83.3125 66.8438 82.875 63.4062 82.875 59.3438V27.1875H90.2812V24.75H67.3125V27.1875ZM158.906 23.8125C151.406 23.8125 144.969 26.2813 139.594 31.2188C133.719 36.6562 130.781 43.75 130.781 52.5C130.781 62.625 134.25 70.4375 141.188 75.9375C146.25 79.9375 152.062 81.9375 158.625 81.9375C166 81.9375 172.344 79.4375 177.656 74.4375C183.594 68.875 186.562 61.6875 186.562 52.875C186.562 42.5625 182.969 34.7188 175.781 29.3438C170.906 25.6562 165.281 23.8125 158.906 23.8125ZM158.906 79.3125C149.844 79.3125 144.031 74.4688 141.469 64.7812C140.594 61.3438 140.156 57.375 140.156 52.875C140.156 38 144.656 29.375 153.656 27C155.219 26.625 156.875 26.4375 158.625 26.4375C170.938 26.5625 177.125 35.25 177.188 52.5C177.188 66.125 173.406 74.5938 165.844 77.9062C163.719 78.8438 161.406 79.3125 158.906 79.3125ZM231.281 81C231.281 79.625 230.781 78.8438 229.781 78.6562C229.469 78.5938 229.156 78.5625 228.844 78.5625H222.469V27.1875H227.906C232.969 27.1875 236.344 30.25 238.031 36.375C238.031 36.625 238.062 36.8125 238.125 36.9375L239.625 43.2188H242.25L241.781 24.75H195.469L195 43.2188H197.625L199.125 36.9375C201.125 30.8125 204.531 27.5625 209.344 27.1875H214.406V78.5625H205.5V81H231.281ZM292.969 41.625L292.5 24.75H249.281V27.1875H256.781V78.5625H249.281V81H292.5L292.969 64.125H291.094L289.781 68.5312C288.219 73.8438 285.906 77.0312 282.844 78.0938C281.906 78.4062 280.906 78.5625 279.844 78.5625H264.844V53.3438H284.156V50.625H264.844V27.1875H279.844C284.344 27.1875 287.562 30.2188 289.5 36.2812C289.625 36.6562 289.719 36.9688 289.781 37.2188L291.094 41.625H292.969ZM343.219 66.2812C343.219 60.7188 340.219 56.25 334.219 52.875C333.031 52.25 329.375 50.5938 323.25 47.9062C317.688 45.5312 314.188 43.0938 312.75 40.5938C312 39.2188 311.625 37.75 311.625 36.1875C311.625 32 313.656 29.0938 317.719 27.4688C319.469 26.7812 321.406 26.4375 323.531 26.4375C328.781 26.4375 332.781 28.2188 335.531 31.7812C337.344 34.2188 338.219 37.1875 338.156 40.6875H340.969V24.2812C339.469 24.2812 338.594 24.75 338.344 25.6875C338.219 26.125 338.156 26.7188 338.156 27.4688C333.719 25.0312 328.719 23.8125 323.156 23.8125C316.406 23.8125 311.156 25.6875 307.406 29.4375C304.906 32.0625 303.656 35.125 303.656 38.625C303.656 43.875 306.594 48.1562 312.469 51.4688C313.531 52.0312 317.094 53.625 323.156 56.25C328.781 58.75 332.344 61.2812 333.844 63.8438C334.656 65.2812 335.062 66.8438 335.062 68.5312C335.062 72.9062 332.938 76.0625 328.688 78C326.688 78.875 324.469 79.3125 322.031 79.3125C312.469 79.1875 307.156 73.3438 306.094 61.7812H303.281V81.1875C304.781 81.1875 305.656 80.75 305.906 79.875C306.031 79.375 306.094 78.4688 306.094 77.1562C310.906 80.3438 316.375 81.9375 322.5 81.9375C329.688 81.9375 335.25 80 339.188 76.125C341.875 73.375 343.219 70.0938 343.219 66.2812Z" fill="black"/>
</svg>
